<svg xmlns="http://www.w3.org/2000/svg" viewBox="0 0 24 24">
  <mask id="sai-wordmark-cutout">
    <rect width="24" height="24" fill="#fff"/>
    <path fill="#000" d="M16.1 8.25c-.72-.53-1.73-.9-3.02-.9-1.36 0-2.19.47-2.19 1.24 0 .83.72 1.14 2.84 1.82 2.56.82 4.4 1.86 4.4 4.3 0 2.77-2.2 4.42-5.55 4.42-2.05 0-3.83-.46-5.24-1.31l.92-2.74c1.25.77 2.7 1.2 4.09 1.2 1.45 0 2.38-.42 2.38-1.22 0-.75-.6-1.1-2.82-1.79-2.61-.82-4.4-1.94-4.4-4.45 0-2.56 2.09-4.28 5.35-4.28 1.86 0 3.22.35 4.32 1.02l-1.08 2.69z"/>
  </mask>
  <path fill="currentColor" mask="url(#sai-wordmark-cutout)" d="M3.5 3.5h17v17h-17z"/>
</svg>
